<svg xmlns="http://www.w3.org/2000/svg" viewBox="0 0 475.2 129.5">
  <defs/>
  <style>
    .st0{fill-rule:evenodd;clip-rule:evenodd;fill:#ee3524}.st10{fill:#131313}
  </style>
  <path id="Fill-3_1_" d="M59.3 78.6c2.6-.3 5.1-1.1 7.3-2.4 5.6-3.1 8.8-8.5 9.1-15.2v-.6h7.7c-.5-3.9-2-7.6-4.2-10.7L71.4 55c2.4 3.8 2.7 8 .9 12.2-2.1 5-7.3 9.4-13 11.4" class="st0"/>
  <path id="Fill-5_1_" d="M83.6 61.7h-6.7c-.5 6.7-4 12.4-9.7 15.6-3.3 1.8-7 2.7-10.8 2.7-2.9 0-5.9-.5-8.8-1.6 3.4 2.2 7.3 3.3 11.3 3.4h.1c7.2 0 13.7-3.9 17.4-10.3l.3-.5 4.5 2.9c1.6-3.1 2.5-6.7 2.5-10.4 0-.7 0-1.3-.1-1.8" class="st0"/>
  <path id="Fill-7_1_" d="M59.1 83c-7.3 0-14-3.6-18.9-9.8 3.7 7.8 11.5 13.2 20.7 13.2 8.5 0 15.8-4.7 19.8-11.6l-3.5-2.2C73.2 79.1 66.5 83 59.1 83" class="st0"/>
  <path id="Fill-9_1_" d="M57.3 28.4c-18.3 0-33.1 14.9-33.1 33.3S39.1 95 57.3 95s33.1-14.9 33.1-33.3-14.8-33.3-33.1-33.3m0 57.5c-13.3 0-24-10.8-24-24.2 0-13.4 10.8-24.2 24-24.2s24 10.8 24 24.2c.1 13.4-10.7 24.2-24 24.2" class="st0"/>
  <g id="runner">
    <linearGradient id="SVGID_1_" x1="117.2639" x2="101.7713" y1="160.5289" y2="207.8917" gradientTransform="matrix(.9246 .3808 -.3808 .9246 44.5784 -182.493)" gradientUnits="userSpaceOnUse">
      <stop offset="0" stop-color="#e9605c"/>
      <stop offset=".3226" stop-color="#e16c59"/>
      <stop offset=".906" stop-color="#ce8c50"/>
      <stop offset="1" stop-color="#ca924e"/>
    </linearGradient>
    <path fill="url(#SVGID_1_)" d="M78.4 31.3c-1-3.7-4.2-4-5.4-3.5-1.2.6-2.5 1.8-2.7 3.8L66 37s1.3 4 2.3 6.1c0 0 1.9-3.9 5-5.8 3-1.9 5.1-6 5.1-6z"/>
    <linearGradient id="SVGID_2_" x1="108.3128" x2="61.0018" y1="226.0685" y2="241.1129" gradientTransform="matrix(.9246 .3808 -.3808 .9246 44.5784 -182.493)" gradientUnits="userSpaceOnUse">
      <stop offset="0" stop-color="#440c0a"/>
      <stop offset=".3499" stop-color="#490d0b"/>
      <stop offset=".7894" stop-color="#59100c"/>
      <stop offset="1" stop-color="#63120d"/>
    </linearGradient>
    <path fill="url(#SVGID_2_)" d="M51.3 55.7c-3 2.9-3.3 6.1-4.2 8.3-.9 2.3-2.7 3.5-4.2 5.9 0 0-.7-2.9-4.3-4.9-2.3-1.3-2.3-2.2-2.3-2.2s.4-.4 0-1.1c-.3-.6-.8-3.4-1.6-4.7-.7-1.1-1.1-.4-1.1-.4s-9.4 5.2-8.2 6.8c0 0 1.3 1.2 2.9.8 3.8-.9 5.4.2 6.1-.1 0 0 4.2 6.7 5.7 9.9s2.1 4 3.6 4 6.5-3 9.2-8.5c2.8-5.5-1.6-13.8-1.6-13.8z"/>
    <linearGradient id="SVGID_3_" x1="67.4422" x2="158.8688" y1="237.2716" y2="237.2716" gradientTransform="matrix(.9246 .3808 -.3808 .9246 44.5784 -182.493)" gradientUnits="userSpaceOnUse">
      <stop offset="0" stop-color="#440c0a"/>
      <stop offset=".5327" stop-color="#57100c"/>
      <stop offset="1" stop-color="#63120d"/>
    </linearGradient>
    <path fill="url(#SVGID_3_)" d="M50.5 58.5c-2 2.9-.5 7.1 1 11.7s9.5 6.7 8.9 7.8c-.6 1.1-1.6 2.3-3.7 6-2.6 4.6-4.4 8.1-4.9 11 0 0 1.2 1 1.6 0 .4-1 8.6-9.1 11.1-15.2s-2.4-6.6-4.2-14.6l-9.8-6.7z"/>
    <linearGradient id="SVGID_4_" x1="138.8088" x2="209.0582" y1="410.7966" y2="410.7966" gradientTransform="rotate(43.747 508.44585388 96.85557623)" gradientUnits="userSpaceOnUse">
      <stop offset="0" stop-color="#1e3139"/>
      <stop offset=".3076" stop-color="#382629"/>
      <stop offset=".7525" stop-color="#571715"/>
      <stop offset="1" stop-color="#63120d"/>
    </linearGradient>
    <path fill="url(#SVGID_4_)" d="M53.3 91.8c-.4-.2-.8 0-1.1.4-.3.4-1.7 2.2-2.2 2.5s-.9.6-.6 1.4c.3.8 1.8 3.4 4.9 4.9 3.1 1.5 4.9.6 5.1.2.2-.3 0-1.5-.6-1.9-.6-.4-2.1-1.3-2.4-1.8-.2-.5-1.8-4.4-1.7-5.1.2-.7-1.4-.6-1.4-.6z"/>
    <linearGradient id="SVGID_5_" x1="100.5896" x2="126.4534" y1="209.7257" y2="209.7257" gradientTransform="matrix(.9246 .3808 -.3808 .9246 44.5784 -182.493)" gradientUnits="userSpaceOnUse">
      <stop offset="0" stop-color="#63120d"/>
      <stop offset=".1316" stop-color="#761610"/>
      <stop offset=".5352" stop-color="#ad2017"/>
      <stop offset=".8368" stop-color="#cf271c"/>
      <stop offset="1" stop-color="#dc291e"/>
    </linearGradient>
    <path fill="url(#SVGID_5_)" d="M68.4 38.8c2.9 3.5 3.5 8.5-1 14s-7.5 9.2-7 12.5c0 0-8.6.6-11.4-6.4 0 0 1.1-2.2 3.5-4.1s2.9-1.8 3.3-5.1c.2-2.2.4-6.9 2.4-9.7 1.9-3 8-3.9 10.2-1.2z"/>
    <linearGradient id="SVGID_6_" x1="49.9559" x2="52.3637" y1="8.1646" y2="43.6252" gradientTransform="matrix(.9996 .02916 -.02916 .9996 24.7679 -1.7859)" gradientUnits="userSpaceOnUse">
      <stop offset="0" stop-color="#e9605c"/>
      <stop offset=".2822" stop-color="#e7635b"/>
      <stop offset=".4965" stop-color="#e16d58"/>
      <stop offset=".6879" stop-color="#d77d54"/>
      <stop offset=".8546" stop-color="#ca924e"/>
    </linearGradient>
    <path fill="url(#SVGID_6_)" d="M73.6 31.3s-.6-1-1.2-.3.1 2.6.9 2.6c.9 0-.6 3.4 1.5 5 1.3.9 3.2-1.1 3.2-2.8 0 0 0-.2.3-.1.2.1.6-.1.6-.3s-.5-1.2-.4-1.6c.1-.4.5-2.4-.6-4-1.2-1.6-3.6-1.4-4.3 1.5z"/>
    <linearGradient id="SVGID_7_" x1="260.3509" x2="221.7736" y1="390.0387" y2="334.803" gradientTransform="rotate(46.827 504.32772262 -14.8660288)" gradientUnits="userSpaceOnUse">
      <stop offset="0" stop-color="#e9605c"/>
      <stop offset=".5088" stop-color="#da7755"/>
      <stop offset="1" stop-color="#ca924e"/>
    </linearGradient>
    <path fill="url(#SVGID_7_)" d="M59.1 33c-3.2-.5-5.7 0-7.1.7-2.3 1.1-6.4 9-6.9 12.9 0 0-1.3 1-1.7 1.8-.5.8-.8 2.1-.7 2.6.1.6 0 1.4.6 1.7.6.3 2.3.5 2.7.2.4-.3 1.1-1.8 1.3-1.8.2 0 .6.4.6 1.2 0 .8 1 1.4 1.3.9.4-.4-.6-.4-.4-1.6.2-1.2-.1-2-.5-2.4-.4-.4-1.1-2-1.1-2s.2-1.4 2-3.3c1.8-2 5.1-4 5.1-4 1.2 0 2 .2 3 .6 1.9-3.6 2-6.1 1.8-7.5z"/>
    <linearGradient id="SVGID_8_" x1="248.1152" x2="231.106" y1="354.7125" y2="324.275" gradientTransform="rotate(46.827 504.32772262 -14.8660288)" gradientUnits="userSpaceOnUse">
      <stop offset="0" stop-color="#63120d"/>
      <stop offset=".3588" stop-color="#901a13"/>
      <stop offset="1" stop-color="#dc291e"/>
    </linearGradient>
    <path fill="url(#SVGID_8_)" d="M67.9 42.2c1.6-1.5 3.2-4.8-2.9-7.5-2.2-.9-4.1-1.5-5.9-1.7.2 1.4.1 3.9-1.9 7.6.7.3 1.5.8 2.6 1.4 2.4 1.6 5.9 2.1 8.1.2z"/>
    <linearGradient id="SVGID_9_" x1="382.804" x2="344.2267" y1="-312.7994" y2="-368.0352" gradientTransform="matrix(.2233 -.9747 .9747 .2233 334.0933 478.5397)" gradientUnits="userSpaceOnUse">
      <stop offset="0" stop-color="#e9605c"/>
      <stop offset=".5088" stop-color="#da7755"/>
      <stop offset="1" stop-color="#ca924e"/>
    </linearGradient>
    <path fill="url(#SVGID_9_)" d="M62.7 50.1c1.4 2.9 3.2 4.7 4.6 5.5 2.2 1.3 11 .3 14.5-1.5 0 0 1.5.5 2.5.4.9-.1 2.2-.5 2.6-.9.4-.4 1.1-.8 1-1.5-.1-.7-.8-2.2-1.3-2.4-.5-.2-2.1.1-2.2-.1-.1-.2 0-.7.7-1.1.7-.4.6-1.6 0-1.6s0 .7-1.1 1.2c-1.2.5-1.6 1.2-1.8 1.7-.1.5-1 2.1-1 2.1s-1.2.6-3.9.2c-2.6-.4-6.1-2-6.1-2-.6-1-1-1.8-1.2-2.8-4.1.5-6.2 1.8-7.3 2.8z"/>
  </g>
  <path d="M162.6 86.1H150v-19h-14.6V86h-12.6V39.7h12.6v17.2H150V39.7h12.6v46.4zM188.7 86.7c-6 0-10.6-1.6-13.9-4.8s-5-7.7-5-13.6c0-6.1 1.5-10.7 4.6-14 3.1-3.2 7.4-4.9 13.1-4.9 5.4 0 9.6 1.4 12.6 4.2 3 2.8 4.4 6.9 4.4 12.2v5.5h-22.2c.1 2 .8 3.6 2.2 4.7s3.3 1.7 5.7 1.7c2.2 0 4.2-.2 6-.6 1.8-.4 3.8-1.1 6-2.1v8.9c-1.9 1-4 1.7-6 2.1-2.1.5-4.6.7-7.5.7zm-.7-28.8c-1.5 0-2.7.5-3.7 1.4-1 .9-1.6 2.4-1.7 4.3h10.7c0-1.7-.5-3.1-1.5-4.2-1-1-2.2-1.5-3.8-1.5zM234.4 86.1l-2.4-4.8h-.3c-1.7 2.1-3.4 3.5-5.1 4.3-1.7.8-4 1.1-6.7 1.1-3.4 0-6.1-1-8-3-1.9-2-2.9-4.9-2.9-8.6 0-3.8 1.3-6.7 4-8.6 2.7-1.9 6.5-2.9 11.6-3.2l6-.2v-.5c0-3-1.5-4.4-4.4-4.4-2.6 0-6 .9-10 2.7l-3.6-8.2c4.2-2.2 9.5-3.2 15.9-3.2 4.6 0 8.2 1.1 10.7 3.4s3.8 5.5 3.8 9.6v23.6h-8.6zm-9.2-8.2c1.5 0 2.8-.5 3.9-1.4 1.1-1 1.6-2.2 1.6-3.7V70l-2.9.1c-4.1.1-6.1 1.7-6.1 4.5-.1 2.2 1.1 3.3 3.5 3.3zM262.1 86.7c-2.6 0-4.8-.7-6.7-2.2-1.9-1.5-3.4-3.6-4.4-6.4-1-2.8-1.6-6.1-1.6-9.9 0-5.8 1.2-10.4 3.5-13.7s5.6-5 9.7-5c2 0 3.8.4 5.3 1.2 1.5.8 2.9 2.2 4.1 4.1h.3c-.4-2.8-.6-5.6-.6-8.4v-9.6h12.5v49.4h-9.4l-2.7-4.5h-.5c-2.1 3.3-5.3 5-9.5 5zm5.1-9.8c2 0 3.4-.6 4.2-1.9.8-1.2 1.3-3.2 1.3-5.8v-1c0-3.2-.5-5.4-1.4-6.8-.9-1.3-2.3-2-4.3-2-1.6 0-2.9.8-3.8 2.3-.9 1.5-1.3 3.7-1.3 6.6 0 2.8.5 4.9 1.4 6.4.9 1.5 2.2 2.2 3.9 2.2zM319.9 75c0 3.9-1.3 6.8-3.9 8.7-2.6 2-6.4 3-11.3 3-2.7 0-5-.1-7-.4-2-.3-4-.8-6-1.6v-9.9c1.9.8 4 1.5 6.3 2.1 2.3.6 4.3.8 6.1.8 2.7 0 4-.6 4-1.8 0-.6-.4-1.2-1.1-1.7-.8-.5-2.9-1.5-6.6-2.9-3.3-1.4-5.6-2.9-6.9-4.6-1.3-1.7-2-3.9-2-6.6 0-3.3 1.3-5.9 3.9-7.8 2.6-1.9 6.2-2.8 10.9-2.8 2.4 0 4.6.3 6.7.8 2.1.5 4.2 1.3 6.5 2.3l-3.4 8c-1.7-.7-3.4-1.4-5.2-1.9s-3.3-.8-4.5-.8c-2 0-3 .5-3 1.5 0 .6.4 1.1 1.1 1.6.7.4 2.8 1.3 6.1 2.7 2.5 1 4.4 2.1 5.6 3 1.2 1 2.1 2.2 2.7 3.5s1 2.9 1 4.8zM343.9 76.9c1.7 0 3.7-.4 6-1.2v9c-1.7.7-3.3 1.2-4.8 1.5s-3.3.5-5.3.5c-4.2 0-7.2-1-9-3.1s-2.8-5.2-2.8-9.4V59.4h-4.3v-5l5.5-3.9 3.2-7.6h8.1v7.2h8.8v9.3h-8.8v14c.1 2.3 1.2 3.5 3.4 3.5zM379.6 86.1l-2.4-4.8h-.3c-1.7 2.1-3.4 3.5-5.1 4.3-1.7.8-4 1.1-6.7 1.1-3.4 0-6.1-1-8-3-1.9-2-2.9-4.9-2.9-8.6 0-3.8 1.3-6.7 4-8.6 2.7-1.9 6.5-2.9 11.6-3.2l6-.2v-.5c0-3-1.5-4.4-4.4-4.4-2.6 0-6 .9-10 2.7l-3.6-8.2c4.2-2.2 9.5-3.2 15.9-3.2 4.6 0 8.2 1.1 10.7 3.4s3.8 5.5 3.8 9.6v23.6h-8.6zm-9.3-8.2c1.5 0 2.8-.5 3.9-1.4 1.1-1 1.6-2.2 1.6-3.7V70l-2.9.1c-4.1.1-6.1 1.7-6.1 4.5 0 2.2 1.2 3.3 3.5 3.3zM417.8 49.5c1.1 0 2.1.1 3.1.3l.7.1-1.1 11.7c-1-.3-2.4-.4-4.2-.4-2.7 0-4.7.6-5.9 1.9-1.2 1.2-1.8 3-1.8 5.3v17.7h-12.4v-36h9.2l1.9 5.7h.6c1-1.9 2.5-3.4 4.3-4.6 1.8-1.1 3.7-1.7 5.6-1.7zM445 77.9c1.7 0 3.7-.4 6-1.2v9c-1.7.7-3.3 1.2-4.8 1.5s-3.3.5-5.3.5c-4.2 0-7.2-1-9-3.1-1.8-2-2.8-5.2-2.8-9.4V60.4l-4.3-1v-5l5.5-2.9 3.2-7.6h8.1v7.2h8.8v9.3h-8.8v14c0 2.3 1.1 3.5 3.4 3.5z" class="st10"/>
</svg>
